C:\Users\Nick\Projects\MRSDeviceOpt\results\experiments\subject02\walk2\expdata\ground_reaction.mot
version=1
nRows=61
nColumns=19
inDegrees=no
endheader
time	ground_force_r_vx	ground_force_r_vy	ground_force_r_vz	ground_force_r_px	ground_force_r_py	ground_force_r_pz	ground_force_l_vx	ground_force_l_vy	ground_force_l_vz	ground_force_l_px	ground_force_l_py	ground_force_l_pz	ground_torque_r_x	ground_torque_r_y	ground_torque_r_z	ground_torque_l_x	ground_torque_l_y	ground_torque_l_z
1.704167	-0.809530	3.002383	1.193089	0.000000	0.000000	0.000000	-9.699539	593.148499	37.534977	0.836691	0.000000	-0.540197	0.000000	0.000000	0.000000	-0.000000	2.494662	-0.000000
1.705208	-0.778046	3.015595	1.189489	0.000000	0.000000	0.000000	-9.435014	592.514832	37.416691	0.835876	0.000000	-0.540173	0.000000	0.000000	0.000000	-0.000000	2.465092	-0.000000
1.706250	-0.743904	3.031281	1.195216	0.000000	0.000000	0.000000	-9.176211	591.925049	37.295681	0.835057	0.000000	-0.540147	0.000000	0.000000	0.000000	-0.000000	2.435055	-0.000000
1.707292	-0.707548	3.049055	1.211833	0.000000	0.000000	0.000000	-8.921077	591.379028	37.175098	0.834234	0.000000	-0.540121	0.000000	0.000000	0.000000	-0.000000	2.404532	-0.000000
1.708333	-0.669504	3.068500	1.240406	0.000000	0.000000	0.000000	-8.667237	590.876160	37.057854	0.833406	0.000000	-0.540094	0.000000	0.000000	0.000000	-0.000000	2.373508	-0.000000
1.709375	-0.630359	3.089170	1.281424	0.000000	0.000000	0.000000	-8.412120	590.415588	36.946491	0.832573	0.000000	-0.540067	0.000000	0.000000	0.000000	-0.000000	2.341971	-0.000000
1.710417	-0.590740	3.110609	1.334762	0.000000	0.000000	0.000000	-8.153082	589.996155	36.843136	0.831736	0.000000	-0.540038	0.000000	0.000000	0.000000	-0.000000	2.309914	-0.000000
1.711458	-0.551287	3.132367	1.399660	0.000000	0.000000	0.000000	-7.887548	589.616577	36.749424	0.830894	0.000000	-0.540009	0.000000	0.000000	0.000000	-0.000000	2.277331	-0.000000
1.712500	-0.512619	3.154010	1.474745	0.000000	0.000000	0.000000	-7.613150	589.275452	36.666447	0.830047	0.000000	-0.539978	0.000000	0.000000	0.000000	-0.000000	2.244224	-0.000000
1.713542	-0.475317	3.175147	1.558072	0.000000	0.000000	0.000000	-7.327864	588.971558	36.594742	0.829196	0.000000	-0.539947	0.000000	0.000000	0.000000	-0.000000	2.210596	-0.000000
1.714583	-0.439889	3.195442	1.647200	0.000000	0.000000	0.000000	-7.030128	588.703491	36.534279	0.828340	0.000000	-0.539914	0.000000	0.000000	0.000000	-0.000000	2.176454	-0.000000
1.715625	-0.406763	3.214640	1.739292	0.000000	0.000000	0.000000	-6.718944	588.469971	36.484467	0.827479	0.000000	-0.539881	0.000000	0.000000	0.000000	-0.000000	2.141811	-0.000000
1.716667	-0.376272	3.232586	1.831227	0.000000	0.000000	0.000000	-6.393945	588.270142	36.444199	0.826614	0.000000	-0.539846	0.000000	0.000000	0.000000	-0.000000	2.106683	-0.000000
1.717708	-0.348651	3.249235	1.919738	0.000000	0.000000	0.000000	-6.055433	588.102905	36.411888	0.825744	0.000000	-0.539810	0.000000	0.000000	0.000000	-0.000000	2.071090	-0.000000
1.718750	-0.324047	3.264673	2.001543	0.000000	0.000000	0.000000	-5.704386	587.967773	36.385544	0.824870	0.000000	-0.539772	0.000000	0.000000	0.000000	-0.000000	2.035057	-0.000000
1.719792	-0.302524	3.279111	2.073490	0.000000	0.000000	0.000000	-5.342418	587.864075	36.362835	0.823992	0.000000	-0.539734	0.000000	0.000000	0.000000	-0.000000	1.998611	-0.000000
1.720833	-0.284085	3.292887	2.132694	0.000000	0.000000	0.000000	-4.971714	587.791565	36.341190	0.823108	0.000000	-0.539694	0.000000	0.000000	0.000000	-0.000000	1.961784	-0.000000
1.721875	-0.268688	3.306449	2.176662	0.000000	0.000000	0.000000	-4.594923	587.749939	36.317883	0.822221	0.000000	-0.539653	0.000000	0.000000	0.000000	-0.000000	1.924612	-0.000000
1.722917	-0.256265	3.320326	2.203408	0.000000	0.000000	0.000000	-4.215035	587.739014	36.290138	0.821329	0.000000	-0.539611	0.000000	0.000000	0.000000	-0.000000	1.887132	-0.000000
1.723958	-0.246739	3.335100	2.211541	0.000000	0.000000	0.000000	-3.835227	587.758606	36.255222	0.820433	0.000000	-0.539567	0.000000	0.000000	0.000000	-0.000000	1.849385	-0.000000
1.725000	-0.240041	3.351363	2.200342	0.000000	0.000000	0.000000	-3.458706	587.808533	36.210560	0.819533	0.000000	-0.539522	0.000000	0.000000	0.000000	-0.000000	1.811415	-0.000000
1.726042	-0.236118	3.369672	2.169797	0.000000	0.000000	0.000000	-3.088544	587.888489	36.153805	0.818628	0.000000	-0.539476	0.000000	0.000000	0.000000	-0.000000	1.773267	-0.000000
1.727083	-0.234938	3.390508	2.120616	0.000000	0.000000	0.000000	-2.727520	587.997986	36.082939	0.817720	0.000000	-0.539429	0.000000	0.000000	0.000000	-0.000000	1.734990	-0.000000
1.728125	-0.236491	3.414233	2.054219	0.000000	0.000000	0.000000	-2.377982	588.136353	35.996338	0.816807	0.000000	-0.539381	0.000000	0.000000	0.000000	-0.000000	1.696633	-0.000000
1.729167	-0.240784	3.441061	1.972681	0.000000	0.000000	0.000000	-2.041722	588.302734	35.892834	0.815889	0.000000	-0.539332	0.000000	0.000000	0.000000	-0.000000	1.658245	-0.000000
1.730208	-0.247832	3.471030	1.878666	0.000000	0.000000	0.000000	-1.719889	588.496094	35.771751	0.814968	0.000000	-0.539282	0.000000	0.000000	0.000000	-0.000000	1.619879	-0.000000
1.731250	-0.257648	3.503996	1.775322	0.000000	0.000000	0.000000	-1.412935	588.715088	35.632938	0.814042	0.000000	-0.539231	0.000000	0.000000	0.000000	-0.000000	1.581586	-0.000000
1.732292	-0.270225	3.539634	1.666162	0.000000	0.000000	0.000000	-1.120596	588.958252	35.476780	0.813113	0.000000	-0.539179	0.000000	0.000000	0.000000	-0.000000	1.543419	-0.000000
1.733333	-0.285519	3.577450	1.554920	0.000000	0.000000	0.000000	-0.841908	589.224060	35.304169	0.812179	0.000000	-0.539126	0.000000	0.000000	0.000000	-0.000000	1.505427	-0.000000
1.734375	-0.303435	3.616807	1.445405	0.000000	0.000000	0.000000	-0.575270	589.510803	35.116501	0.811241	0.000000	-0.539073	0.000000	0.000000	0.000000	-0.000000	1.467664	-0.000000
1.735417	-0.323807	3.656956	1.341344	0.000000	0.000000	0.000000	-0.318530	589.816895	34.915627	0.810299	0.000000	-0.539019	0.000000	0.000000	0.000000	-0.000000	1.430180	-0.000000
1.736458	-0.346384	3.697079	1.246235	0.000000	0.000000	0.000000	-0.069106	590.140686	34.703796	0.809354	0.000000	-0.538964	0.000000	0.000000	0.000000	-0.000000	1.393023	-0.000000
1.737500	-0.370815	3.736330	1.163198	0.000000	0.000000	0.000000	0.175871	590.480835	34.483589	0.808405	0.000000	-0.538910	0.000000	0.000000	0.000000	-0.000000	1.356243	-0.000000
1.738542	-0.396643	3.773873	1.094853	0.000000	0.000000	0.000000	0.419405	590.836182	34.257854	0.807452	0.000000	-0.538855	0.000000	0.000000	0.000000	-0.000000	1.319885	-0.000000
1.739583	-0.423299	3.808928	1.043215	0.000000	0.000000	0.000000	0.664471	591.205750	34.029633	0.806497	0.000000	-0.538800	0.000000	0.000000	0.000000	-0.000000	1.283993	-0.000000
1.740625	-0.450109	3.840806	1.009615	0.000000	0.000000	0.000000	0.913857	591.589050	33.802059	0.805538	0.000000	-0.538744	0.000000	0.000000	0.000000	-0.000000	1.248612	-0.000000
1.741667	-0.476303	3.868934	0.994651	0.000000	0.000000	0.000000	1.170017	591.985840	33.578304	0.804576	0.000000	-0.538689	0.000000	0.000000	0.000000	-0.000000	1.213780	-0.000000
1.742708	-0.501037	3.892884	0.998170	0.000000	0.000000	0.000000	1.434943	592.396423	33.361481	0.803612	0.000000	-0.538634	0.000000	0.000000	0.000000	-0.000000	1.179536	-0.000000
1.743750	-0.523419	3.912386	1.019280	0.000000	0.000000	0.000000	1.710060	592.821289	33.154568	0.802646	0.000000	-0.538579	0.000000	0.000000	0.000000	-0.000000	1.145916	-0.000000
1.744792	-0.542547	3.927334	1.056395	0.000000	0.000000	0.000000	1.996160	593.261353	32.960354	0.801677	0.000000	-0.538525	0.000000	0.000000	0.000000	-0.000000	1.112951	-0.000000
1.745833	-0.557548	3.937783	1.107308	0.000000	0.000000	0.000000	2.293357	593.717834	32.781353	0.800708	0.000000	-0.538471	0.000000	0.000000	0.000000	-0.000000	1.080672	-0.000000
1.746875	-0.567622	3.943939	1.169281	0.000000	0.000000	0.000000	2.601094	594.192200	32.619762	0.799736	0.000000	-0.538417	0.000000	0.000000	0.000000	-0.000000	1.049105	-0.000000
1.747917	-0.572085	3.946136	1.239170	0.000000	0.000000	0.000000	2.918173	594.685974	32.477417	0.798765	0.000000	-0.538364	0.000000	0.000000	0.000000	-0.000000	1.018274	-0.000000
1.748958	-0.570412	3.944810	1.313544	0.000000	0.000000	0.000000	3.242821	595.200745	32.355740	0.797792	0.000000	-0.538312	0.000000	0.000000	0.000000	-0.000000	0.988200	-0.000000
1.750000	-0.562268	3.940455	1.388832	0.000000	0.000000	0.000000	3.572789	595.738220	32.255722	0.796819	0.000000	-0.538260	0.000000	0.000000	0.000000	-0.000000	0.958899	-0.000000
1.751042	-0.547534	3.933586	1.461462	0.000000	0.000000	0.000000	3.905472	596.299683	32.177921	0.795847	0.000000	-0.538209	0.000000	0.000000	0.000000	-0.000000	0.930386	-0.000000
1.752083	-0.526321	3.924689	1.528002	0.000000	0.000000	0.000000	4.238047	596.886353	32.122433	0.794875	0.000000	-0.538159	0.000000	0.000000	0.000000	-0.000000	0.902672	-0.000000
1.753125	-0.498970	3.914176	1.585285	0.000000	0.000000	0.000000	4.567624	597.499023	32.088909	0.793904	0.000000	-0.538110	0.000000	0.000000	0.000000	-0.000000	0.875762	-0.000000
1.754167	-0.466042	3.902337	1.630529	0.000000	0.000000	0.000000	4.891394	598.138123	32.076595	0.792934	0.000000	-0.538062	0.000000	0.000000	0.000000	-0.000000	0.849661	-0.000000
1.755208	-0.428292	3.889308	1.661433	0.000000	0.000000	0.000000	5.206780	598.803589	32.084328	0.791965	0.000000	-0.538015	0.000000	0.000000	0.000000	-0.000000	0.824369	-0.000000
1.756250	-0.386639	3.875041	1.676249	0.000000	0.000000	0.000000	5.511573	599.494812	32.110603	0.790999	0.000000	-0.537969	0.000000	0.000000	0.000000	-0.000000	0.799882	-0.000000
1.757292	-0.342119	3.859291	1.673829	0.000000	0.000000	0.000000	5.804049	600.210693	32.153599	0.790034	0.000000	-0.537924	0.000000	0.000000	0.000000	-0.000000	0.776193	-0.000000
1.758333	-0.295844	3.841619	1.653647	0.000000	0.000000	0.000000	6.083063	600.949646	32.211243	0.789071	0.000000	-0.537880	0.000000	0.000000	0.000000	-0.000000	0.753291	-0.000000
1.759375	-0.248952	3.821409	1.615796	0.000000	0.000000	0.000000	6.348113	601.709534	32.281269	0.788111	0.000000	-0.537837	0.000000	0.000000	0.000000	-0.000000	0.731162	-0.000000
1.760417	-0.202557	3.797902	1.560952	0.000000	0.000000	0.000000	6.599375	602.487915	32.361267	0.787153	0.000000	-0.537795	0.000000	0.000000	0.000000	-0.000000	0.709790	-0.000000
1.761458	-0.157706	3.770239	1.490326	0.000000	0.000000	0.000000	6.837702	603.282043	32.448753	0.786198	0.000000	-0.537754	0.000000	0.000000	0.000000	-0.000000	0.689152	-0.000000
1.762500	-0.115342	3.737516	1.405591	0.000000	0.000000	0.000000	7.064586	604.088867	32.541237	0.785246	0.000000	-0.537714	0.000000	0.000000	0.000000	-0.000000	0.669225	-0.000000
1.763542	-0.076274	3.698849	1.308801	0.000000	0.000000	0.000000	7.282094	604.905396	32.636265	0.784297	0.000000	-0.537675	0.000000	0.000000	0.000000	-0.000000	0.649983	-0.000000
1.764583	-0.041146	3.653425	1.202295	0.000000	0.000000	0.000000	7.492773	605.728699	32.731499	0.783351	0.000000	-0.537637	0.000000	0.000000	0.000000	-0.000000	0.631395	-0.000000
1.765625	-0.010433	3.600569	1.088608	0.000000	0.000000	0.000000	7.699525	606.555969	32.824760	0.782409	0.000000	-0.537601	0.000000	0.000000	0.000000	-0.000000	0.613428	-0.000000
1.766667	0.015574	3.539785	0.970374	0.000000	0.000000	0.000000	7.905478	607.384888	32.914089	0.781470	0.000000	-0.537565	0.000000	0.000000	0.000000	-0.000000	0.596049	-0.000000
